<svg xmlns="http://www.w3.org/2000/svg" viewBox="0 0 1000 600" font-family="SF Pro Display, -apple-system, sans-serif">
  <defs>
    <filter id="shadow"><feDropShadow dx="0" dy="2" stdDeviation="3" flood-opacity="0.1"/></filter>
  </defs>
  <rect width="1000" height="600" fill="white"/>

  <!-- Title -->
  <text x="500" y="36" text-anchor="middle" font-size="20" font-weight="600" fill="#1E293B">Non-Streaming vs Streaming Responses</text>
  <text x="500" y="58" text-anchor="middle" font-size="13" fill="#6B7280">Same total latency — streaming just reveals tokens as they're generated, improving perceived speed</text>

  <!-- LEFT: Non-streaming (Blue) -->
  <rect x="30" y="85" width="460" height="470" rx="12" fill="#EFF6FF" stroke="#3B82F6" stroke-width="2" filter="url(#shadow)"/>
  <rect x="30" y="85" width="460" height="46" rx="12" fill="#3B82F6"/>
  <rect x="30" y="119" width="460" height="12" fill="#3B82F6"/>
  <text x="260" y="115" text-anchor="middle" font-size="16" font-weight="600" fill="white">Non-Streaming (default)</text>

  <rect x="90" y="146" width="340" height="26" rx="13" fill="#DBEAFE"/>
  <text x="260" y="164" text-anchor="middle" font-size="11" font-weight="600" fill="#1E40AF">One big reveal at the end</text>

  <!-- Code -->
  <rect x="50" y="188" width="420" height="70" rx="8" fill="#0F172A"/>
  <text x="62" y="208" font-size="11" font-family="Menlo, monospace" fill="#34D399">response = client.messages.create(...)</text>
  <text x="62" y="226" font-size="11" font-family="Menlo, monospace" fill="#94A3B8"># blocks the thread...</text>
  <text x="62" y="244" font-size="11" font-family="Menlo, monospace" fill="#34D399">print(response.content[0].text)</text>

  <!-- Timeline label -->
  <text x="50" y="286" font-size="11" font-weight="700" fill="#1E40AF">Timeline (5s total)</text>

  <!-- Timeline: wait period -->
  <rect x="50" y="294" width="340" height="36" rx="4" fill="#DBEAFE" stroke="#93C5FD"/>
  <text x="220" y="318" text-anchor="middle" font-size="12" font-weight="600" fill="#1E40AF">waiting... (nothing shown)</text>

  <!-- Timeline: reveal -->
  <rect x="394" y="294" width="76" height="36" rx="4" fill="#3B82F6"/>
  <text x="432" y="318" text-anchor="middle" font-size="11" font-weight="700" fill="white">reveal all</text>

  <!-- tick marks -->
  <line x1="50" y1="335" x2="50" y2="342" stroke="#6B7280"/>
  <text x="50" y="355" text-anchor="middle" font-size="9" fill="#6B7280">0s</text>
  <line x1="145" y1="335" x2="145" y2="342" stroke="#6B7280"/>
  <text x="145" y="355" text-anchor="middle" font-size="9" fill="#6B7280">1s</text>
  <line x1="240" y1="335" x2="240" y2="342" stroke="#6B7280"/>
  <text x="240" y="355" text-anchor="middle" font-size="9" fill="#6B7280">2s</text>
  <line x1="335" y1="335" x2="335" y2="342" stroke="#6B7280"/>
  <text x="335" y="355" text-anchor="middle" font-size="9" fill="#6B7280">4s</text>
  <line x1="430" y1="335" x2="430" y2="342" stroke="#6B7280"/>
  <text x="430" y="355" text-anchor="middle" font-size="9" fill="#6B7280">5s</text>

  <!-- Pros/Cons -->
  <rect x="50" y="375" width="420" height="125" rx="8" fill="white" stroke="#BFDBFE"/>
  <text x="66" y="396" font-size="11" font-weight="700" fill="#166534">Pros</text>
  <text x="66" y="414" font-size="10" fill="#1E293B">+ Simplest code — single return value</text>
  <text x="66" y="430" font-size="10" fill="#1E293B">+ Easy to .json() / store / log</text>
  <text x="66" y="446" font-size="10" fill="#1E293B">+ No event-loop handling</text>
  <text x="260" y="396" font-size="11" font-weight="700" fill="#991B1B">Cons</text>
  <text x="260" y="414" font-size="10" fill="#1E293B">− Blank screen until done</text>
  <text x="260" y="430" font-size="10" fill="#1E293B">− Feels slow to users</text>
  <text x="260" y="446" font-size="10" fill="#1E293B">− Hard to cancel mid-way</text>
  <text x="66" y="470" font-size="11" fill="#6B7280">First token visible at: <tspan font-weight="700" fill="#EF4444">~5s (end)</tspan></text>
  <text x="66" y="488" font-size="11" fill="#6B7280">Total time: <tspan font-weight="700" fill="#1E293B">5s</tspan></text>

  <!-- Use cases -->
  <rect x="50" y="510" width="420" height="34" rx="6" fill="#F1F5F9"/>
  <text x="260" y="531" text-anchor="middle" font-size="11" fill="#1E293B">Best for batch jobs, cron tasks, backend-only pipelines</text>

  <!-- RIGHT: Streaming (Green) -->
  <rect x="510" y="85" width="460" height="470" rx="12" fill="#F0FDF4" stroke="#22C55E" stroke-width="2" filter="url(#shadow)"/>
  <rect x="510" y="85" width="460" height="46" rx="12" fill="#22C55E"/>
  <rect x="510" y="119" width="460" height="12" fill="#22C55E"/>
  <text x="740" y="115" text-anchor="middle" font-size="16" font-weight="600" fill="white">Streaming (progressive)</text>

  <rect x="570" y="146" width="340" height="26" rx="13" fill="#DCFCE7"/>
  <text x="740" y="164" text-anchor="middle" font-size="11" font-weight="600" fill="#14532D">Tokens flow as Claude produces them</text>

  <!-- Code -->
  <rect x="530" y="188" width="420" height="70" rx="8" fill="#0F172A"/>
  <text x="542" y="208" font-size="11" font-family="Menlo, monospace" fill="#34D399">with client.messages.stream(...) as stream:</text>
  <text x="542" y="226" font-size="11" font-family="Menlo, monospace" fill="#34D399">    for text in stream.text_stream:</text>
  <text x="542" y="244" font-size="11" font-family="Menlo, monospace" fill="#34D399">        print(text, end="", flush=True)</text>

  <!-- Timeline label -->
  <text x="530" y="286" font-size="11" font-weight="700" fill="#14532D">Timeline (5s total — same!)</text>

  <!-- Timeline: chunks -->
  <g transform="translate(530,294)">
    <rect x="0"   y="0" width="42" height="36" rx="3" fill="#22C55E"/>
    <text x="21"  y="22" text-anchor="middle" font-size="9" fill="white">chunk</text>
    <rect x="44"  y="0" width="42" height="36" rx="3" fill="#22C55E"/>
    <text x="65"  y="22" text-anchor="middle" font-size="9" fill="white">chunk</text>
    <rect x="88"  y="0" width="42" height="36" rx="3" fill="#22C55E"/>
    <text x="109" y="22" text-anchor="middle" font-size="9" fill="white">chunk</text>
    <rect x="132" y="0" width="42" height="36" rx="3" fill="#22C55E"/>
    <text x="153" y="22" text-anchor="middle" font-size="9" fill="white">chunk</text>
    <rect x="176" y="0" width="42" height="36" rx="3" fill="#22C55E"/>
    <text x="197" y="22" text-anchor="middle" font-size="9" fill="white">chunk</text>
    <rect x="220" y="0" width="42" height="36" rx="3" fill="#22C55E"/>
    <text x="241" y="22" text-anchor="middle" font-size="9" fill="white">chunk</text>
    <rect x="264" y="0" width="42" height="36" rx="3" fill="#22C55E"/>
    <text x="285" y="22" text-anchor="middle" font-size="9" fill="white">chunk</text>
    <rect x="308" y="0" width="42" height="36" rx="3" fill="#22C55E"/>
    <text x="329" y="22" text-anchor="middle" font-size="9" fill="white">chunk</text>
    <rect x="352" y="0" width="42" height="36" rx="3" fill="#22C55E"/>
    <text x="373" y="22" text-anchor="middle" font-size="9" fill="white">chunk</text>
  </g>

  <!-- ticks -->
  <line x1="530" y1="335" x2="530" y2="342" stroke="#6B7280"/>
  <text x="530" y="355" text-anchor="middle" font-size="9" fill="#6B7280">0s</text>
  <line x1="614" y1="335" x2="614" y2="342" stroke="#6B7280"/>
  <text x="614" y="355" text-anchor="middle" font-size="9" fill="#6B7280">1s</text>
  <line x1="698" y1="335" x2="698" y2="342" stroke="#6B7280"/>
  <text x="698" y="355" text-anchor="middle" font-size="9" fill="#6B7280">2s</text>
  <line x1="822" y1="335" x2="822" y2="342" stroke="#6B7280"/>
  <text x="822" y="355" text-anchor="middle" font-size="9" fill="#6B7280">4s</text>
  <line x1="914" y1="335" x2="914" y2="342" stroke="#6B7280"/>
  <text x="914" y="355" text-anchor="middle" font-size="9" fill="#6B7280">5s</text>

  <!-- Pros/Cons -->
  <rect x="530" y="375" width="420" height="125" rx="8" fill="white" stroke="#BBF7D0"/>
  <text x="546" y="396" font-size="11" font-weight="700" fill="#166534">Pros</text>
  <text x="546" y="414" font-size="10" fill="#1E293B">+ First token in ~200ms</text>
  <text x="546" y="430" font-size="10" fill="#1E293B">+ Feels responsive, chatbot-native</text>
  <text x="546" y="446" font-size="10" fill="#1E293B">+ Can cancel mid-stream on abort</text>
  <text x="740" y="396" font-size="11" font-weight="700" fill="#991B1B">Cons</text>
  <text x="740" y="414" font-size="10" fill="#1E293B">− More event handling code</text>
  <text x="740" y="430" font-size="10" fill="#1E293B">− Must accumulate text yourself</text>
  <text x="740" y="446" font-size="10" fill="#1E293B">− Harder to retry cleanly</text>
  <text x="546" y="470" font-size="11" fill="#6B7280">First token visible at: <tspan font-weight="700" fill="#22C55E">~0.2s</tspan></text>
  <text x="546" y="488" font-size="11" fill="#6B7280">Total time: <tspan font-weight="700" fill="#1E293B">5s (same)</tspan></text>

  <!-- Event types -->
  <rect x="530" y="510" width="420" height="34" rx="6" fill="#F1F5F9"/>
  <text x="740" y="525" text-anchor="middle" font-size="10" fill="#1E293B" font-weight="600">Event types</text>
  <text x="740" y="539" text-anchor="middle" font-size="10" font-family="Menlo, monospace" fill="#475569">message_start · content_block_delta · message_stop</text>

  <!-- Bottom key note -->
  <rect x="100" y="565" width="800" height="28" rx="6" fill="#FEF3C7" stroke="#F59E0B"/>
  <text x="500" y="584" text-anchor="middle" font-size="11" fill="#92400E" font-weight="600">Streaming improves perceived latency — same total time, earlier first token. Critical for chat UIs.</text>
</svg>
