<svg xmlns="http://www.w3.org/2000/svg" viewBox="0 0 1000 600" font-family="SF Pro Display, -apple-system, sans-serif">
  <defs>
    <filter id="shadow"><feDropShadow dx="0" dy="2" stdDeviation="3" flood-opacity="0.1"/></filter>
    <marker id="arrow" viewBox="0 0 10 10" refX="9" refY="5" markerWidth="6" markerHeight="6" orient="auto">
      <path d="M0,0 L10,5 L0,10 Z" fill="#64748B"/>
    </marker>
  </defs>
  <rect width="1000" height="600" fill="white"/>

  <text x="500" y="36" text-anchor="middle" font-size="20" font-weight="600" fill="#1E293B">Multi-Index RAG — Hybrid Retrieval with Reciprocal Rank Fusion</text>
  <text x="500" y="58" text-anchor="middle" font-size="13" fill="#6B7280">Retriever fans query out to every index, then merges rankings with RRF</text>

  <!-- User query -->
  <rect x="40" y="96" width="180" height="48" rx="8" fill="white" stroke="#64748B" stroke-width="1.5"/>
  <text x="130" y="116" text-anchor="middle" font-size="11" font-weight="700" fill="#1E293B">Query</text>
  <text x="130" y="132" text-anchor="middle" font-size="10" font-family="Menlo, monospace" fill="#1E293B">"INC-2023-Q4-011?"</text>

  <line x1="225" y1="120" x2="260" y2="120" stroke="#64748B" stroke-width="1.5" marker-end="url(#arrow)"/>

  <!-- Retriever orchestrator -->
  <rect x="265" y="92" width="180" height="56" rx="8" fill="#1E293B"/>
  <text x="355" y="115" text-anchor="middle" font-size="12" font-weight="700" fill="white">Retriever</text>
  <text x="355" y="132" text-anchor="middle" font-size="10" fill="#CBD5E1">fan-out + RRF merge</text>

  <!-- Branches to two indexes -->
  <line x1="355" y1="152" x2="180" y2="190" stroke="#64748B" stroke-width="1.5" marker-end="url(#arrow)"/>
  <line x1="355" y1="152" x2="530" y2="190" stroke="#64748B" stroke-width="1.5" marker-end="url(#arrow)"/>

  <!-- VectorIndex -->
  <rect x="60" y="198" width="240" height="150" rx="10" fill="#F3E8FF" stroke="#8B5CF6" stroke-width="2" filter="url(#shadow)"/>
  <rect x="60" y="198" width="240" height="32" rx="10" fill="#8B5CF6"/>
  <rect x="60" y="218" width="240" height="12" fill="#8B5CF6"/>
  <text x="180" y="219" text-anchor="middle" font-size="12" font-weight="600" fill="white">VectorIndex (semantic)</text>

  <text x="74" y="250" font-size="10" font-weight="600" fill="#5B21B6">Top 3 results:</text>
  <rect x="74" y="256" width="212" height="22" rx="3" fill="white" stroke="#C4B5FD"/>
  <text x="82" y="271" font-size="10" fill="#1E293B">1. Section 2 · SW Eng</text>
  <rect x="74" y="282" width="212" height="22" rx="3" fill="white" stroke="#C4B5FD"/>
  <text x="82" y="297" font-size="10" fill="#1E293B">2. Section 7 · Legal</text>
  <rect x="74" y="308" width="212" height="22" rx="3" fill="white" stroke="#C4B5FD"/>
  <text x="82" y="323" font-size="10" fill="#1E293B">3. Section 6 · Finance</text>

  <!-- BM25Index -->
  <rect x="410" y="198" width="240" height="150" rx="10" fill="#F0FDF4" stroke="#22C55E" stroke-width="2" filter="url(#shadow)"/>
  <rect x="410" y="198" width="240" height="32" rx="10" fill="#22C55E"/>
  <rect x="410" y="218" width="240" height="12" fill="#22C55E"/>
  <text x="530" y="219" text-anchor="middle" font-size="12" font-weight="600" fill="white">BM25Index (lexical)</text>

  <text x="424" y="250" font-size="10" font-weight="600" fill="#14532D">Top 3 results:</text>
  <rect x="424" y="256" width="212" height="22" rx="3" fill="white" stroke="#86EFAC"/>
  <text x="432" y="271" font-size="10" fill="#1E293B">1. Section 6 · Finance</text>
  <rect x="424" y="282" width="212" height="22" rx="3" fill="white" stroke="#86EFAC"/>
  <text x="432" y="297" font-size="10" fill="#1E293B">2. Section 2 · SW Eng</text>
  <rect x="424" y="308" width="212" height="22" rx="3" fill="white" stroke="#86EFAC"/>
  <text x="432" y="323" font-size="10" fill="#1E293B">3. Section 7 · Legal</text>

  <!-- Extensible: other index -->
  <rect x="760" y="198" width="200" height="150" rx="10" fill="#FEF3C7" stroke="#F59E0B" stroke-width="2" stroke-dasharray="5,3"/>
  <rect x="760" y="198" width="200" height="32" rx="10" fill="#F59E0B"/>
  <rect x="760" y="218" width="200" height="12" fill="#F59E0B"/>
  <text x="860" y="219" text-anchor="middle" font-size="12" font-weight="600" fill="white">+ Future index</text>
  <text x="775" y="252" font-size="10" fill="#78350F">Same SearchIndex protocol:</text>
  <text x="775" y="268" font-size="10" font-family="Menlo, monospace" fill="#92400E">add_document()</text>
  <text x="775" y="282" font-size="10" font-family="Menlo, monospace" fill="#92400E">search()</text>
  <text x="775" y="302" font-size="9" fill="#78350F">Plug in graph, keyword,</text>
  <text x="775" y="314" font-size="9" fill="#78350F">domain-specific — Retriever</text>
  <text x="775" y="326" font-size="9" fill="#78350F">auto-fuses it in.</text>

  <!-- Arrows down to RRF -->
  <line x1="180" y1="354" x2="300" y2="394" stroke="#64748B" stroke-width="1.5" marker-end="url(#arrow)"/>
  <line x1="530" y1="354" x2="420" y2="394" stroke="#64748B" stroke-width="1.5" marker-end="url(#arrow)"/>

  <!-- RRF merge box -->
  <rect x="60" y="400" width="660" height="144" rx="10" fill="#EFF6FF" stroke="#3B82F6" stroke-width="2" filter="url(#shadow)"/>
  <rect x="60" y="400" width="660" height="32" rx="10" fill="#3B82F6"/>
  <rect x="60" y="420" width="660" height="12" fill="#3B82F6"/>
  <text x="390" y="421" text-anchor="middle" font-size="12" font-weight="600" fill="white">Reciprocal Rank Fusion (RRF)</text>

  <text x="76" y="452" font-size="11" font-weight="700" fill="#1E40AF">Formula</text>
  <rect x="76" y="458" width="280" height="26" rx="4" fill="white" stroke="#93C5FD"/>
  <text x="86" y="476" font-size="11" font-family="Menlo, monospace" fill="#1E293B">RRF(d) = Σ 1 / (k + rank_i(d))</text>
  <text x="76" y="498" font-size="10" fill="#1E293B">k = 60 (default) · using k=1 for clarity below</text>

  <text x="370" y="452" font-size="11" font-weight="700" fill="#1E40AF">Worked example</text>
  <text x="370" y="470" font-size="10" font-family="Menlo, monospace" fill="#1E293B">§2 = 1/(1+1) + 1/(1+2) = 0.833</text>
  <text x="370" y="486" font-size="10" font-family="Menlo, monospace" fill="#1E293B">§6 = 1/(1+3) + 1/(1+1) = 0.750</text>
  <text x="370" y="502" font-size="10" font-family="Menlo, monospace" fill="#1E293B">§7 = 1/(1+2) + 1/(1+3) = 0.583</text>

  <text x="76" y="524" font-size="10" fill="#6B7280">Sum each doc's reciprocal rank across all indexes. Documents that rank well in multiple indexes float to the top.</text>

  <!-- Final merged results -->
  <rect x="740" y="400" width="220" height="144" rx="10" fill="white" stroke="#3B82F6" stroke-width="2"/>
  <text x="850" y="422" text-anchor="middle" font-size="12" font-weight="700" fill="#1E40AF">Fused top-K</text>
  <rect x="752" y="432" width="196" height="22" rx="3" fill="#3B82F6"/>
  <text x="760" y="447" font-size="10" fill="white">1. §2 SW Eng  (0.833)</text>
  <rect x="752" y="458" width="196" height="22" rx="3" fill="#60A5FA"/>
  <text x="760" y="473" font-size="10" fill="white">2. §6 Finance (0.750)</text>
  <rect x="752" y="484" width="196" height="22" rx="3" fill="#93C5FD"/>
  <text x="760" y="499" font-size="10" fill="#1E3A8A">3. §7 Legal (0.583)</text>
  <text x="850" y="528" text-anchor="middle" font-size="9" fill="#6B7280">→ passed to Claude</text>

  <text x="500" y="582" text-anchor="middle" font-size="11" fill="#6B7280">Shared SearchIndex API keeps indexes decoupled · RRF fairly combines rankings regardless of raw scores.</text>
</svg>
