<svg xmlns="http://www.w3.org/2000/svg" viewBox="0 0 1000 600" font-family="PingFang TC, -apple-system, sans-serif">
  <defs>
    <filter id="shadow"><feDropShadow dx="0" dy="2" stdDeviation="3" flood-opacity="0.1"/></filter>
    <marker id="arrow" viewBox="0 0 10 10" refX="9" refY="5" markerWidth="6" markerHeight="6" orient="auto">
      <path d="M0,0 L10,5 L0,10 Z" fill="#64748B"/>
    </marker>
  </defs>
  <rect width="1000" height="600" fill="white"/>

  <!-- Title -->
  <text x="500" y="36" text-anchor="middle" font-size="20" font-weight="600" fill="#1E293B">多輪對話流程</text>
  <text x="500" y="58" text-anchor="middle" font-size="13" fill="#6B7280">Claude 是無狀態的 — 你的 messages[] 陣列就是記憶體。每一輪都必須送完整歷史。</text>

  <!-- Lane labels -->
  <text x="50" y="108" font-size="12" font-weight="700" fill="#3B82F6">使用者</text>
  <text x="50" y="228" font-size="12" font-weight="700" fill="#8B5CF6">客戶端（messages[]）</text>
  <text x="50" y="408" font-size="12" font-weight="700" fill="#22C55E">CLAUDE</text>

  <!-- TURN 1 -->
  <text x="200" y="86" text-anchor="middle" font-size="11" font-weight="700" fill="#6B7280">第 1 輪</text>

  <rect x="115" y="95" width="170" height="44" rx="8" fill="#EFF6FF" stroke="#3B82F6" stroke-width="2" filter="url(#shadow)"/>
  <text x="200" y="113" text-anchor="middle" font-size="11" font-weight="600" fill="#1E40AF">使用者說：</text>
  <text x="200" y="130" text-anchor="middle" font-size="11" fill="#1E293B">「嗨，我是 Alice」</text>

  <line x1="200" y1="145" x2="200" y2="170" stroke="#64748B" stroke-width="1.5" marker-end="url(#arrow)"/>

  <rect x="115" y="175" width="170" height="80" rx="8" fill="#FAF5FF" stroke="#8B5CF6" stroke-width="2"/>
  <text x="200" y="192" text-anchor="middle" font-size="10" font-weight="600" fill="#5B21B6">messages[]</text>
  <rect x="125" y="200" width="150" height="20" rx="3" fill="#EDE9FE"/>
  <text x="200" y="214" text-anchor="middle" font-size="9" font-family="Menlo, monospace" fill="#5B21B6">{user: "Hi, I'm Alice"}</text>
  <text x="200" y="238" text-anchor="middle" font-size="9" fill="#6B7280">長度：1</text>

  <line x1="200" y1="260" x2="200" y2="300" stroke="#64748B" stroke-width="1.5" marker-end="url(#arrow)"/>
  <text x="230" y="285" font-size="9" fill="#6B7280">送出 →</text>

  <rect x="115" y="305" width="170" height="64" rx="8" fill="#F0FDF4" stroke="#22C55E" stroke-width="2" filter="url(#shadow)"/>
  <text x="200" y="324" text-anchor="middle" font-size="11" font-weight="600" fill="#166534">Claude 回應：</text>
  <text x="200" y="342" text-anchor="middle" font-size="11" fill="#1E293B">「Hello Alice!</text>
  <text x="200" y="356" text-anchor="middle" font-size="11" fill="#1E293B">How can I help?」</text>

  <path d="M 285 185 Q 330 185 330 215" stroke="#8B5CF6" stroke-width="2" fill="none" stroke-dasharray="4,3"/>
  <line x1="330" y1="215" x2="330" y2="230" stroke="#8B5CF6" stroke-width="2" marker-end="url(#arrow)" stroke-dasharray="4,3"/>
  <text x="332" y="205" font-size="9" fill="#5B21B6">追加 ←</text>

  <!-- TURN 2 -->
  <text x="500" y="86" text-anchor="middle" font-size="11" font-weight="700" fill="#6B7280">第 2 輪</text>

  <rect x="415" y="95" width="170" height="44" rx="8" fill="#EFF6FF" stroke="#3B82F6" stroke-width="2" filter="url(#shadow)"/>
  <text x="500" y="113" text-anchor="middle" font-size="11" font-weight="600" fill="#1E40AF">使用者說：</text>
  <text x="500" y="130" text-anchor="middle" font-size="11" fill="#1E293B">「我叫什麼名字？」</text>

  <line x1="500" y1="145" x2="500" y2="170" stroke="#64748B" stroke-width="1.5" marker-end="url(#arrow)"/>

  <rect x="400" y="175" width="200" height="118" rx="8" fill="#FAF5FF" stroke="#8B5CF6" stroke-width="2"/>
  <text x="500" y="192" text-anchor="middle" font-size="10" font-weight="600" fill="#5B21B6">messages[]</text>
  <rect x="410" y="200" width="180" height="20" rx="3" fill="#EDE9FE"/>
  <text x="500" y="214" text-anchor="middle" font-size="9" font-family="Menlo, monospace" fill="#5B21B6">{user: "Hi, I'm Alice"}</text>
  <rect x="410" y="224" width="180" height="20" rx="3" fill="#DCFCE7"/>
  <text x="500" y="238" text-anchor="middle" font-size="9" font-family="Menlo, monospace" fill="#166534">{assistant: "Hello Alice!"}</text>
  <rect x="410" y="248" width="180" height="20" rx="3" fill="#DBEAFE"/>
  <text x="500" y="262" text-anchor="middle" font-size="9" font-family="Menlo, monospace" fill="#1E40AF">{user: "What's my name?"}</text>
  <text x="500" y="284" text-anchor="middle" font-size="9" fill="#6B7280">長度：3</text>

  <line x1="500" y1="298" x2="500" y2="300" stroke="#64748B" stroke-width="1.5"/>
  <text x="530" y="285" font-size="9" fill="#6B7280">送出 →</text>

  <rect x="415" y="305" width="170" height="64" rx="8" fill="#F0FDF4" stroke="#22C55E" stroke-width="2" filter="url(#shadow)"/>
  <text x="500" y="324" text-anchor="middle" font-size="11" font-weight="600" fill="#166534">Claude 回應：</text>
  <text x="500" y="342" text-anchor="middle" font-size="11" fill="#1E293B">「你的名字是</text>
  <text x="500" y="356" text-anchor="middle" font-size="11" fill="#1E293B">Alice。」</text>

  <path d="M 585 185 Q 630 185 630 215" stroke="#8B5CF6" stroke-width="2" fill="none" stroke-dasharray="4,3"/>
  <line x1="630" y1="215" x2="630" y2="230" stroke="#8B5CF6" stroke-width="2" marker-end="url(#arrow)" stroke-dasharray="4,3"/>
  <text x="632" y="205" font-size="9" fill="#5B21B6">追加 ←</text>

  <!-- TURN 3 -->
  <text x="800" y="86" text-anchor="middle" font-size="11" font-weight="700" fill="#6B7280">第 3 輪</text>

  <rect x="715" y="95" width="170" height="44" rx="8" fill="#EFF6FF" stroke="#3B82F6" stroke-width="2" filter="url(#shadow)"/>
  <text x="800" y="113" text-anchor="middle" font-size="11" font-weight="600" fill="#1E40AF">使用者說：</text>
  <text x="800" y="130" text-anchor="middle" font-size="11" fill="#1E293B">「謝謝！」</text>

  <line x1="800" y1="145" x2="800" y2="170" stroke="#64748B" stroke-width="1.5" marker-end="url(#arrow)"/>

  <rect x="700" y="175" width="200" height="158" rx="8" fill="#FAF5FF" stroke="#8B5CF6" stroke-width="2"/>
  <text x="800" y="192" text-anchor="middle" font-size="10" font-weight="600" fill="#5B21B6">messages[]</text>
  <rect x="710" y="200" width="180" height="20" rx="3" fill="#EDE9FE"/>
  <text x="800" y="214" text-anchor="middle" font-size="9" font-family="Menlo, monospace" fill="#5B21B6">{user: "Hi, I'm Alice"}</text>
  <rect x="710" y="224" width="180" height="20" rx="3" fill="#DCFCE7"/>
  <text x="800" y="238" text-anchor="middle" font-size="9" font-family="Menlo, monospace" fill="#166534">{assistant: "Hello Alice!"}</text>
  <rect x="710" y="248" width="180" height="20" rx="3" fill="#EDE9FE"/>
  <text x="800" y="262" text-anchor="middle" font-size="9" font-family="Menlo, monospace" fill="#5B21B6">{user: "What's my name?"}</text>
  <rect x="710" y="272" width="180" height="20" rx="3" fill="#DCFCE7"/>
  <text x="800" y="286" text-anchor="middle" font-size="9" font-family="Menlo, monospace" fill="#166534">{assistant: "Alice."}</text>
  <rect x="710" y="296" width="180" height="20" rx="3" fill="#DBEAFE"/>
  <text x="800" y="310" text-anchor="middle" font-size="9" font-family="Menlo, monospace" fill="#1E40AF">{user: "Thanks!"}</text>
  <text x="800" y="328" text-anchor="middle" font-size="9" fill="#6B7280">長度：5</text>

  <!-- Key callout -->
  <rect x="80" y="430" width="840" height="70" rx="10" fill="#FEF3C7" stroke="#F59E0B" stroke-width="2" filter="url(#shadow)"/>
  <circle cx="110" cy="465" r="16" fill="#F59E0B"/>
  <text x="110" y="471" text-anchor="middle" font-size="16" font-weight="700" fill="white">!</text>
  <text x="140" y="456" font-size="13" font-weight="700" fill="#92400E">Claude 是無狀態的 — API 在呼叫之間不會記得任何事</text>
  <text x="140" y="474" font-size="11" fill="#78350F">每個請求都是獨立的。要模擬「記憶」，你的客戶端程式碼必須每一輪都送出完整的對話歷史。</text>
  <text x="140" y="490" font-size="11" fill="#78350F">messages[] 每一輪成長 2 筆（一個 user、一個 assistant）。對話越長 = input token 越多 = 費用越高。</text>

  <!-- Bottom rule -->
  <rect x="80" y="518" width="840" height="62" rx="8" fill="#F1F5F9" stroke="#E2E8F0"/>
  <text x="500" y="540" text-anchor="middle" font-size="12" font-weight="600" fill="#1E293B">多輪對話黃金準則</text>
  <text x="500" y="558" text-anchor="middle" font-size="11" fill="#475569">1. 追加使用者訊息 → 2. 帶完整 messages[] 呼叫 API → 3. 追加助手回覆 → 4. 重複以上</text>
  <text x="500" y="574" text-anchor="middle" font-size="10" fill="#6B7280">嚴格交錯：user、assistant、user、assistant...第一筆訊息必須是 "user"。</text>
</svg>
