<svg xmlns="http://www.w3.org/2000/svg" viewBox="0 0 800 560" font-family="SF Pro Display, -apple-system, sans-serif">
  <defs>
    <filter id="shadow"><feDropShadow dx="0" dy="2" stdDeviation="3" flood-opacity="0.1"/></filter>
    <marker id="arrowP" viewBox="0 0 10 10" refX="9" refY="5" markerWidth="6" markerHeight="6" orient="auto">
      <path d="M 0 0 L 10 5 L 0 10 z" fill="#8B5CF6"/>
    </marker>
  </defs>
  <rect width="800" height="560" fill="white"/>

  <!-- Title -->
  <text x="400" y="38" text-anchor="middle" font-size="20" font-weight="600" fill="#1E293B">Agent 的工具迴圈</text>
  <text x="400" y="60" text-anchor="middle" font-size="13" fill="#6B7280">決策 - 執行 - 觀察 - 反思（直到完成）</text>

  <!-- Outer task box -->
  <rect x="250" y="85" width="300" height="50" rx="8" fill="#F1F5F9" stroke="#94A3B8" stroke-width="2"/>
  <text x="400" y="108" text-anchor="middle" font-size="13" font-weight="600" fill="#1E293B">任務 Task</text>
  <text x="400" y="125" text-anchor="middle" font-size="11" fill="#6B7280">例如：「修好這個失敗的測試」</text>

  <!-- Central LLM -->
  <circle cx="400" cy="310" r="70" fill="#FAF5FF" stroke="#8B5CF6" stroke-width="3" filter="url(#shadow)"/>
  <text x="400" y="305" text-anchor="middle" font-size="18" font-weight="700" fill="#8B5CF6">LLM</text>
  <text x="400" y="326" text-anchor="middle" font-size="11" fill="#6B7280">Claude</text>

  <!-- Four nodes around LLM -->
  <!-- Top: Decide -->
  <rect x="315" y="160" width="170" height="60" rx="8" fill="white" stroke="#8B5CF6" stroke-width="2" filter="url(#shadow)"/>
  <text x="400" y="184" text-anchor="middle" font-size="13" font-weight="600" fill="#8B5CF6">1. 決策 Decide</text>
  <text x="400" y="203" text-anchor="middle" font-size="10" fill="#6B7280">挑選下一個要呼叫的 tool</text>

  <!-- Right: Act -->
  <rect x="575" y="280" width="170" height="60" rx="8" fill="white" stroke="#8B5CF6" stroke-width="2" filter="url(#shadow)"/>
  <text x="660" y="304" text-anchor="middle" font-size="13" font-weight="600" fill="#8B5CF6">2. 執行 Act</text>
  <text x="660" y="323" text-anchor="middle" font-size="10" fill="#6B7280">執行 tool_use</text>

  <!-- Bottom: Observe -->
  <rect x="315" y="400" width="170" height="60" rx="8" fill="white" stroke="#8B5CF6" stroke-width="2" filter="url(#shadow)"/>
  <text x="400" y="424" text-anchor="middle" font-size="13" font-weight="600" fill="#8B5CF6">3. 觀察 Observe</text>
  <text x="400" y="443" text-anchor="middle" font-size="10" fill="#6B7280">接收 tool_result</text>

  <!-- Left: Reflect -->
  <rect x="55" y="280" width="170" height="60" rx="8" fill="white" stroke="#8B5CF6" stroke-width="2" filter="url(#shadow)"/>
  <text x="140" y="304" text-anchor="middle" font-size="13" font-weight="600" fill="#8B5CF6">4. 反思 Reflect</text>
  <text x="140" y="323" text-anchor="middle" font-size="10" fill="#6B7280">完成？或再次迴圈？</text>

  <!-- Arrows: clockwise loop -->
  <path d="M 485 205 Q 620 230 645 280" stroke="#8B5CF6" stroke-width="2.5" fill="none" marker-end="url(#arrowP)"/>
  <path d="M 645 340 Q 620 400 485 430" stroke="#8B5CF6" stroke-width="2.5" fill="none" marker-end="url(#arrowP)"/>
  <path d="M 315 430 Q 180 400 155 340" stroke="#8B5CF6" stroke-width="2.5" fill="none" marker-end="url(#arrowP)"/>
  <path d="M 155 280 Q 180 220 315 205" stroke="#8B5CF6" stroke-width="2.5" fill="none" marker-end="url(#arrowP)"/>

  <!-- Task feed into Decide -->
  <line x1="400" y1="135" x2="400" y2="155" stroke="#8B5CF6" stroke-width="2" stroke-dasharray="3 2" marker-end="url(#arrowP)"/>

  <!-- Exit condition label -->
  <rect x="580" y="460" width="200" height="70" rx="8" fill="#F0FDF4" stroke="#22C55E" stroke-width="1.5"/>
  <text x="680" y="483" text-anchor="middle" font-size="11" font-weight="700" fill="#22C55E">結束條件</text>
  <text x="680" y="501" text-anchor="middle" font-size="10" fill="#1E293B">stop_reason == "end_turn"</text>
  <text x="680" y="517" text-anchor="middle" font-size="10" fill="#6B7280">沒有更多 tool_use block</text>

  <rect x="20" y="460" width="200" height="70" rx="8" fill="#EFF6FF" stroke="#3B82F6" stroke-width="1.5"/>
  <text x="120" y="483" text-anchor="middle" font-size="11" font-weight="700" fill="#3B82F6">迴圈不變量</text>
  <text x="120" y="501" text-anchor="middle" font-size="10" fill="#1E293B">持續累積 messages</text>
  <text x="120" y="517" text-anchor="middle" font-size="10" fill="#6B7280">對話持續成長</text>
</svg>
